<?xml version="1.0" standalone="no"?><!DOCTYPE svg PUBLIC "-//W3C//DTD SVG 1.1//EN" "http://www.w3.org/Graphics/SVG/1.1/DTD/svg11.dtd"><svg t="1746785660788" class="icon" viewBox="0 0 1024 1024" version="1.1" xmlns="http://www.w3.org/2000/svg" p-id="7186" xmlns:xlink="http://www.w3.org/1999/xlink" width="200" height="200"><path d="M368.300109 504.929675c-0.697773-8.861055 2.247093-14.932672 10.645171-19.092854 32.605177-16.225701 65.028471-32.785408 97.453418-49.346768 71.978091-36.738904 144.033897-73.347181 215.702785-110.525913 15.759417-8.164936 30.073684-14.854958 44.748411 1.111146 2.480236 2.713378 7.234021 3.178009 10.645171 5.218416 55.185243 33.198781 112.541518 32.062833 168.035963 4.160182 62.832636-31.54529 94.45564-85.490415 97.866791-153.33478-0.724229-11.471916-0.826745-20.281713-1.964347-28.98734-9.920942-80.969772-80.400971-143.802408-154.239239-152.896605-65.261613-8.009508-137.395133 23.846639-172.427634 79.885082-20.410686 32.578722-30.382886 67.741849-30.331628 106.134243 0 4.702527-3.255723 11.652147-7.078592 13.745466-21.392859 11.652147-43.455382 22.088978-65.286416 33.069808C547.212732 251.634785 512.309203 269.203121 477.481734 286.951687 423.071979 314.596393 368.739937 342.576758 314.070583 369.601405c-4.520643 2.247093-13.254379 0.568801-17.64605-2.584406-68.981967-48.700253-148.994368-50.431458-215.806955 0.826745-57.096678 43.817496-79.316282 103.033948-66.552989 175.656901 8.13848 45.857903 32.009921 80.787888 67.044076 107.967964 60.223428 46.917791 139.564512 48.882137 203.430579 7.33819 7.647393-4.857955 14.054669-5.58053 21.908748-1.65349 27.773678 14.105927 55.805302 27.800134 83.57898 41.957319 77.818219 39.78794 155.325583 80.143027 233.348835 119.464682 19.997313 10.127629 32.449749 19.221826 34.000723 46.659846 3.411151 58.130109 36.480959 102.051775 84.432181 134.190668 22.528807 15.0881 48.055392 20.152741 74.717925 23.253036 65.830414 7.544877 119.206738-16.328218 158.632563-67.070532 42.681548-55.082726 48.984654-116.20896 21.960006-181.470573-30.434145-73.684493-114.246267-115.693071-187.775332-103.860693-31.571746 5.011729-61.385832 15.19227-86.13693 36.894332-5.064641 4.49584-9.920942 8.784995-18.499251 4.237896-25.629101-13.53878-51.982432-25.733271-77.818219-38.857025-79.807368-40.614685-159.561825-81.538573-239.369193-122.100346-21.75332-11.109802-21.806232-10.98083-19.479771-34.852271C368.377823 511.957009 368.584509 508.39043 368.300109 504.929675z" fill="#ffffff" p-id="7187"></path></svg>