<svg width="16.000000" height="16.000000" viewBox="0 0 16 16" fill="none" xmlns="http://www.w3.org/2000/svg" xmlns:xlink="http://www.w3.org/1999/xlink">
	<desc>
			Created with Pixso.
	</desc>
	<defs>
		<clipPath id="clip36_78">
			<rect id="24gf-phoneBubble" width="16.000000" height="16.000000" fill="white" fill-opacity="0"/>
		</clipPath>
	</defs>
	<g clip-path="url(#clip36_78)">
		<path id="path" d="M13.61 12.04C13.65 12.08 13.69 12.12 13.72 12.17C13.75 12.21 13.77 12.26 13.8 12.31C13.82 12.36 13.83 12.41 13.84 12.47C13.85 12.52 13.86 12.57 13.86 12.63C13.86 12.68 13.85 12.74 13.84 12.79C13.83 12.84 13.82 12.9 13.8 12.95C13.77 13 13.75 13.05 13.72 13.09C13.69 13.14 13.65 13.18 13.61 13.22L13.03 13.81C12.59 14.24 12.02 14.51 11.32 14.6C11.15 14.62 10.98 14.63 10.8 14.63C10.3 14.63 9.75 14.54 9.18 14.37C7.61 13.91 5.96 12.87 4.54 11.45C3.12 10.03 2.08 8.38 1.62 6.81C1.39 6.03 1.31 5.31 1.39 4.67C1.48 3.97 1.75 3.4 2.18 2.96L2.77 2.38C2.81 2.34 2.85 2.3 2.9 2.27C2.94 2.24 2.99 2.22 3.04 2.2C3.09 2.17 3.15 2.16 3.2 2.15C3.25 2.14 3.31 2.13 3.36 2.13C3.42 2.13 3.47 2.14 3.52 2.15C3.58 2.16 3.63 2.17 3.68 2.2C3.73 2.22 3.78 2.24 3.82 2.27C3.87 2.3 3.91 2.34 3.95 2.38L6.54 4.97C6.58 5.01 6.62 5.05 6.65 5.09C6.68 5.14 6.7 5.19 6.72 5.24C6.75 5.29 6.76 5.34 6.77 5.39C6.78 5.45 6.79 5.5 6.79 5.56C6.79 5.61 6.78 5.67 6.77 5.72C6.76 5.77 6.75 5.83 6.72 5.88C6.7 5.93 6.68 5.97 6.65 6.02C6.62 6.07 6.58 6.11 6.54 6.15L5.95 6.74C5.62 7.07 5.95 8.15 6.9 9.09C7.84 10.04 8.92 10.37 9.25 10.04L9.84 9.45C9.88 9.41 9.92 9.37 9.97 9.34C10.02 9.31 10.06 9.29 10.11 9.27C10.16 9.24 10.22 9.23 10.27 9.22C10.32 9.21 10.38 9.2 10.43 9.2C10.49 9.2 10.54 9.21 10.6 9.22C10.65 9.23 10.7 9.24 10.75 9.27C10.8 9.29 10.85 9.31 10.9 9.34C10.94 9.37 10.98 9.41 11.02 9.45L13.61 12.04ZM14.44 2.74C14.31 2.46 14.11 2.21 13.86 1.99C13.36 1.56 12.7 1.33 12 1.33C11.29 1.33 10.63 1.56 10.13 1.99C9.88 2.21 9.68 2.46 9.55 2.74C9.4 3.03 9.33 3.34 9.33 3.66C9.33 3.85 9.36 4.04 9.41 4.22C9.46 4.41 9.53 4.58 9.63 4.75C9.76 4.96 9.92 5.14 10.1 5.31C9.96 5.43 9.76 5.56 9.5 5.7C9.47 5.72 9.44 5.75 9.41 5.77C9.39 5.8 9.37 5.83 9.36 5.86C9.34 5.9 9.33 5.93 9.33 5.97C9.33 6.01 9.33 6.04 9.34 6.08C9.35 6.11 9.36 6.15 9.38 6.18C9.4 6.21 9.43 6.24 9.46 6.26C9.49 6.28 9.52 6.3 9.55 6.31C9.59 6.32 9.62 6.33 9.66 6.33C10.41 6.33 11.05 6.2 11.51 5.96C11.67 5.98 11.83 5.99 12 5.99C12.7 5.99 13.36 5.76 13.86 5.33C14.11 5.12 14.31 4.87 14.44 4.59C14.52 4.44 14.57 4.29 14.61 4.14C14.64 3.98 14.66 3.82 14.66 3.66C14.66 3.5 14.64 3.34 14.61 3.19C14.57 3.03 14.52 2.88 14.44 2.74Z" fill="#FFFFFF" fill-opacity="1.000000" fill-rule="nonzero"/>
	</g>
</svg>
