<svg width="16.000000" height="16.000000" viewBox="0 0 16 16" fill="none" xmlns="http://www.w3.org/2000/svg" xmlns:xlink="http://www.w3.org/1999/xlink">
	<desc>
			Created with Pixso.
	</desc>
	<defs>
		<clipPath id="clip36_80">
			<rect id="加关注" width="16.000000" height="16.000000" fill="white" fill-opacity="0"/>
		</clipPath>
	</defs>
	<g clip-path="url(#clip36_80)">
		<path id="path" d="M9.61 12.84C9.61 12.94 9.62 13.03 9.62 13.13C9.63 13.22 9.65 13.32 9.67 13.41C9.69 13.51 9.71 13.6 9.74 13.69C9.77 13.79 9.8 13.88 9.83 13.97C9.87 14.06 9.91 14.14 9.96 14.23C10 14.31 10.05 14.4 10.11 14.48C10.16 14.56 10.22 14.63 10.28 14.71C10.34 14.78 10.4 14.85 10.47 14.92C10.54 14.99 10.61 15.05 10.69 15.12C10.76 15.18 10.84 15.23 10.92 15.29C11 15.34 11.08 15.39 11.17 15.44C11.25 15.48 11.34 15.52 11.43 15.56C11.52 15.6 11.61 15.63 11.7 15.66C11.79 15.69 11.89 15.71 11.98 15.73C12.07 15.75 12.17 15.76 12.27 15.77C12.36 15.78 12.46 15.78 12.55 15.78C12.65 15.78 12.75 15.78 12.84 15.77C12.94 15.76 13.03 15.75 13.13 15.73C13.22 15.71 13.32 15.69 13.41 15.66C13.5 15.63 13.59 15.6 13.68 15.56C13.77 15.52 13.86 15.48 13.94 15.44C14.03 15.39 14.11 15.34 14.19 15.29C14.27 15.23 14.35 15.18 14.42 15.12C14.5 15.05 14.57 14.99 14.64 14.92C14.7 14.85 14.77 14.78 14.83 14.71C14.89 14.63 14.95 14.56 15 14.48C15.06 14.4 15.11 14.31 15.15 14.23C15.2 14.14 15.24 14.06 15.27 13.97C15.31 13.88 15.34 13.79 15.37 13.69C15.4 13.6 15.42 13.51 15.44 13.41C15.46 13.32 15.47 13.22 15.48 13.13C15.49 13.03 15.5 12.94 15.5 12.84C15.5 12.74 15.49 12.65 15.48 12.55C15.47 12.46 15.46 12.36 15.44 12.27C15.42 12.17 15.4 12.08 15.37 11.99C15.34 11.89 15.31 11.8 15.27 11.71C15.24 11.62 15.2 11.54 15.15 11.45C15.11 11.37 15.06 11.29 15 11.21C14.95 11.12 14.89 11.05 14.83 10.97C14.77 10.9 14.7 10.83 14.64 10.76C14.57 10.69 14.5 10.63 14.42 10.56C14.35 10.5 14.27 10.45 14.19 10.39C14.11 10.34 14.03 10.29 13.94 10.24C13.86 10.2 13.77 10.16 13.68 10.12C13.59 10.08 13.5 10.05 13.41 10.02C13.32 10 13.22 9.97 13.13 9.95C13.03 9.93 12.94 9.92 12.84 9.91C12.75 9.9 12.65 9.9 12.55 9.9C12.46 9.9 12.36 9.9 12.27 9.91C12.17 9.92 12.07 9.93 11.98 9.95C11.89 9.97 11.79 10 11.7 10.02C11.61 10.05 11.52 10.08 11.43 10.12C11.34 10.16 11.25 10.2 11.17 10.24C11.08 10.29 11 10.34 10.92 10.39C10.84 10.45 10.76 10.5 10.69 10.56C10.61 10.63 10.54 10.69 10.47 10.76C10.4 10.83 10.34 10.9 10.28 10.97C10.22 11.05 10.16 11.12 10.11 11.21C10.05 11.29 10 11.37 9.96 11.45C9.91 11.54 9.87 11.62 9.83 11.71C9.8 11.8 9.77 11.89 9.74 11.99C9.71 12.08 9.69 12.17 9.67 12.27C9.65 12.36 9.63 12.46 9.62 12.55C9.62 12.65 9.61 12.74 9.61 12.84Z" fill="#FF903C" fill-opacity="1.000000" fill-rule="nonzero"/>
		<path id="path" d="M14.41 11.55C14.16 11.3 13.76 11.3 13.51 11.55L12.01 13.04L11.6 12.63C11.35 12.38 10.95 12.38 10.7 12.63C10.45 12.88 10.45 13.29 10.7 13.54L11.56 14.4C11.81 14.65 12.22 14.65 12.47 14.4L12.49 14.37L12.5 14.36L14.41 12.45C14.66 12.2 14.66 11.8 14.41 11.55Z" fill="#FFFFFF" fill-opacity="1.000000" fill-rule="nonzero"/>
		<path id="path" d="M9.12 12.87C9.12 11.15 10.41 9.73 12.07 9.51C12.1 9.4 12.16 9.3 12.24 9.22L15.2 6.34C15.57 5.97 15.37 5.34 14.85 5.26L10.76 4.67C10.56 4.64 10.38 4.51 10.29 4.32L8.46 0.62C8.23 0.15 7.56 0.15 7.33 0.62L5.5 4.32C5.41 4.51 5.23 4.64 5.02 4.67L0.94 5.26C0.42 5.34 0.22 5.97 0.59 6.34L3.55 9.22C3.69 9.37 3.76 9.57 3.73 9.78L3.03 13.85C2.94 14.37 3.48 14.76 3.94 14.52L7.6 12.59C7.78 12.5 7.99 12.5 8.17 12.59L9.13 13.1C9.12 13.02 9.12 12.95 9.12 12.87Z" fill="#FF903C" fill-opacity="1.000000" fill-rule="nonzero"/>
	</g>
</svg>
