<svg width="140.000000" height="47.000000" viewBox="0 0 140 47" fill="none" xmlns="http://www.w3.org/2000/svg" xmlns:xlink="http://www.w3.org/1999/xlink">
	<desc>
			Created with Pixso.
	</desc>
	<defs>
		<clipPath id="clip53_4">
			<rect id="画板 1" width="140.000000" height="47.000000" fill="white" fill-opacity="0"/>
		</clipPath>
	</defs>
	<rect id="画板 1" width="140.000000" height="47.000000" fill="#BEBEBE" fill-opacity="0"/>
	<g clip-path="url(#clip53_4)">
		<path id="YUAN MIANLI" d="M13.28 24L10.32 24L10.32 18.58L5.87 9.2L9.01 9.2L10.5 12.79C10.92 13.9 11.32 14.94 11.78 16.08L11.85 16.08C12.31 14.94 12.75 13.9 13.17 12.79L14.66 9.2L17.73 9.2L13.28 18.58L13.28 24ZM30.59 17.33C30.59 22.26 28.49 24.27 24.88 24.27C21.28 24.27 19.11 22.26 19.11 17.33L19.11 9.2L22.08 9.2L22.08 17.59C22.08 20.67 23.14 21.71 24.88 21.71C26.63 21.71 27.76 20.67 27.76 17.59L27.76 9.2L30.59 9.2L30.59 17.33ZM44.94 24L41.83 24L40.79 20.2L36 20.2L34.95 24L31.96 24L36.69 9.2L40.17 9.2L44.94 24ZM49.47 24L46.68 24L46.68 9.2L49.69 9.2L54 17.08L55.48 20.27L55.57 20.27C55.42 18.74 55.2 16.77 55.2 15.09L55.2 9.2L57.99 9.2L57.99 24L55 24L50.71 16.08L49.22 12.9L49.11 12.9C49.25 14.49 49.47 16.35 49.47 18.05L49.47 24ZM68.86 24L66.2 24L66.2 9.2L69.47 9.2L72 16.11C72.31 17.04 72.59 18.01 72.9 18.98L72.99 18.98C73.32 18.01 73.57 17.04 73.9 16.11L76.35 9.2L79.63 9.2L79.63 24L76.93 24L76.93 17.81C76.93 16.42 77.15 14.36 77.29 12.96L77.22 12.96L76.02 16.44L73.74 22.66L72.04 22.66L69.74 16.44L68.55 12.96L68.48 12.96C68.61 14.36 68.86 16.42 68.86 17.81L68.86 24ZM86.24 24L83.28 24L83.28 9.2L86.24 9.2L86.24 24ZM100.96 24L97.85 24L96.81 20.2L92.02 20.2L90.97 24L87.98 24L92.71 9.2L96.19 9.2L100.96 24ZM105.49 24L102.7 24L102.7 9.2L105.71 9.2L110.02 17.08L111.5 20.27L111.59 20.27C111.44 18.74 111.22 16.77 111.22 15.09L111.22 9.2L114.02 9.2L114.02 24L111.02 24L106.73 16.08L105.24 12.9L105.13 12.9C105.27 14.49 105.49 16.35 105.49 18.05L105.49 24ZM126.64 24L117.68 24L117.68 9.2L120.64 9.2L120.64 21.51L126.64 21.51L126.64 24ZM132.17 24L129.22 24L129.22 9.2L132.17 9.2L132.17 24ZM37.07 16.28L36.63 17.9L40.16 17.9L39.72 16.28C39.26 14.74 38.86 13.03 38.42 11.44L38.33 11.44C37.95 13.05 37.51 14.74 37.07 16.28ZM93.09 16.28L92.65 17.9L96.18 17.9L95.74 16.28C95.28 14.74 94.88 13.03 94.44 11.44L94.35 11.44C93.97 13.05 93.53 14.74 93.09 16.28Z" fill="#FFFFFF" fill-opacity="1.000000" fill-rule="evenodd"/>
		<path id="袁绵丽" d="M69.17 34.69C68.7 35.51 68.13 36.34 67.55 37.06L68.8 36.79C68.79 37.05 68.82 37.44 68.86 37.64C66.7 38.17 66.34 38.28 66.12 38.44C66.06 38.24 65.91 37.77 65.81 37.52C66.03 37.47 66.22 37.26 66.51 36.93C66.65 36.79 66.91 36.46 67.21 36.03C66.4 36.12 66.19 36.19 66.04 36.26C65.99 36.05 65.84 35.56 65.72 35.29C65.91 35.25 66.06 35.05 66.26 34.75C66.48 34.49 67.11 33.37 67.45 32.33L68.47 32.7C68.09 33.56 67.57 34.45 67.04 35.17L67.8 35.1C67.99 34.8 68.17 34.49 68.32 34.16L69.17 34.69ZM71.99 37.02L73.98 37.02L73.98 39.02C73.98 39.46 73.92 39.7 73.63 39.86C73.37 39.99 73 40 72.52 40C72.5 39.73 72.39 39.36 72.27 39.1C72.51 39.11 72.77 39.12 72.85 39.11C72.94 39.1 72.97 39.08 72.97 39L72.97 37.96L71.99 37.96L71.99 40.72L70.96 40.72L70.96 37.96L70.09 37.96L70.09 39.99L69.09 39.99L69.09 37.02L70.96 37.02L70.96 36.42L69.32 36.42L69.32 33.19L70.84 33.19C70.9 32.89 70.94 32.58 70.97 32.33L72.17 32.41C72.09 32.69 72 32.94 71.91 33.19L73.77 33.19L73.77 36.42L71.99 36.42L71.99 37.02ZM11.52 34.26L14.82 34.26L14.82 35.09L7.11 35.09L7.11 34.26L10.45 34.26L10.45 33.76L7.82 33.76L7.82 32.95L10.45 32.95L10.45 32.34L11.52 32.34L11.52 32.95L14.2 32.95L14.2 33.76L11.52 33.76L11.52 34.26ZM124.92 33.82L124.92 32.79L133.07 32.79L133.07 33.82L124.92 33.82ZM72.74 33.97L70.31 33.97L70.31 34.43L72.74 34.43L72.74 33.97ZM125.36 34.46L128.7 34.46L128.7 39.55C128.7 40.06 128.62 40.33 128.32 40.51C128.02 40.68 127.64 40.7 127.07 40.7C127.05 40.41 126.93 39.95 126.79 39.67C127.08 39.68 127.39 39.68 127.49 39.68C127.6 39.68 127.64 39.64 127.64 39.53L127.64 38.06L127.03 38.33C126.9 37.92 126.63 37.35 126.36 36.82L126.36 40.74L125.36 40.74L125.36 34.46ZM129.27 34.46L132.69 34.46L132.69 39.55C132.69 40.06 132.6 40.33 132.3 40.51C131.99 40.68 131.58 40.69 130.98 40.69C130.96 40.4 130.84 39.96 130.7 39.68C130.96 39.69 131.23 39.69 131.38 39.69C131.42 39.69 131.45 39.69 131.47 39.69C131.58 39.69 131.61 39.65 131.61 39.54L131.61 38.06L130.98 38.35C130.83 37.95 130.54 37.36 130.27 36.84L130.27 40.74L129.27 40.74L129.27 34.46ZM72.74 35.16L70.31 35.16L70.31 35.64L72.74 35.64L72.74 35.16ZM126.36 35.44L126.36 36.42L126.99 36.17C127.21 36.54 127.44 36.98 127.64 37.37L127.64 35.44L126.36 35.44ZM130.27 35.44L130.27 36.48L130.89 36.23C131.15 36.64 131.41 37.15 131.61 37.57L131.61 35.44L130.27 35.44ZM13.91 37.55L13.98 37.48L14.81 38.15C14.34 38.51 13.79 38.88 13.31 39.15C13.84 39.49 14.48 39.72 15.23 39.86C15.01 40.06 14.74 40.47 14.6 40.75C12.77 40.32 11.65 39.34 10.98 37.81C10.65 38.08 10.26 38.34 9.83 38.56L9.83 39.64L11.61 39.29C11.58 39.55 11.58 39.96 11.61 40.17C9.28 40.66 8.89 40.74 8.65 40.85L8.65 40.85L8.65 40.8C8.58 40.55 8.45 40.15 8.32 39.95C8.54 39.87 8.83 39.73 8.83 39.38L8.83 39.02C8.34 39.2 7.83 39.34 7.32 39.45C7.19 39.21 6.91 38.84 6.72 38.63C7.75 38.47 8.85 38.15 9.66 37.72L8.11 37.72L8.11 35.49L13.91 35.49L13.91 37.55ZM12.83 36.28L9.14 36.28L9.14 36.93L12.83 36.93L12.83 36.28ZM12.58 38.6C12.96 38.35 13.38 38.02 13.72 37.72L11.93 37.72C12.11 38.05 12.33 38.34 12.58 38.6ZM68.87 39.16C67.88 39.57 66.84 39.98 65.99 40.32L65.77 39.33C66.5 39.1 67.62 38.69 68.69 38.31L68.87 39.16Z" fill="#FFFFFF" fill-opacity="1.000000" fill-rule="evenodd"/>
	</g>
</svg>
